<svg width="18" height="22" viewBox="0 0 18 22" fill="none" xmlns="http://www.w3.org/2000/svg">
<path d="M9.00018 21.8333C10.1918 21.8333 11.1668 20.8583 11.1668 19.6667H6.83351C6.83351 20.2413 7.06179 20.7924 7.46811 21.1987C7.87444 21.6051 8.42554 21.8333 9.00018 21.8333ZM15.5002 15.3333V9.91668C15.5002 6.59084 13.7235 3.80668 10.6252 3.07001V2.33334C10.6252 1.43418 9.89934 0.708344 9.00018 0.708344C8.10101 0.708344 7.37518 1.43418 7.37518 2.33334V3.07001C4.26601 3.80668 2.50018 6.58001 2.50018 9.91668V15.3333L1.10268 16.7308C0.420178 17.4133 0.896844 18.5833 1.86101 18.5833H16.1285C17.0927 18.5833 17.5802 17.4133 16.8977 16.7308L15.5002 15.3333Z" fill="#5C6370"/>
</svg>
