<svg width="8" height="8" viewBox="0 0 8 8" fill="none" xmlns="http://www.w3.org/2000/svg">
<path fill-rule="evenodd" clip-rule="evenodd" d="M0.823081 2.32305C0.846304 2.29977 0.873891 2.2813 0.904264 2.26869C0.934636 2.25609 0.967197 2.2496 1.00008 2.2496C1.03296 2.2496 1.06552 2.25609 1.0959 2.26869C1.12627 2.2813 1.15386 2.29977 1.17708 2.32305L4.00008 5.14655L6.82308 2.32305C6.84632 2.29981 6.87392 2.28137 6.90429 2.26879C6.93466 2.25621 6.96721 2.24973 7.00008 2.24973C7.03295 2.24973 7.0655 2.25621 7.09587 2.26879C7.12624 2.28137 7.15384 2.29981 7.17708 2.32305C7.20032 2.34629 7.21876 2.37389 7.23134 2.40426C7.24392 2.43463 7.2504 2.46718 7.2504 2.50005C7.2504 2.53292 7.24392 2.56547 7.23134 2.59584C7.21876 2.62621 7.20032 2.65381 7.17708 2.67705L4.17708 5.67705C4.15386 5.70033 4.12627 5.7188 4.0959 5.73141C4.06552 5.74401 4.03296 5.7505 4.00008 5.7505C3.9672 5.7505 3.93464 5.74401 3.90426 5.73141C3.87389 5.7188 3.8463 5.70033 3.82308 5.67705L0.823081 2.67705C0.799799 2.65383 0.781328 2.62624 0.768724 2.59587C0.756121 2.56549 0.749634 2.53293 0.749634 2.50005C0.749634 2.46717 0.756121 2.43461 0.768724 2.40423C0.781328 2.37386 0.799799 2.34627 0.823081 2.32305Z" fill="#0B73DA" stroke="#0B73DA"/>
</svg>
