<svg width="14" height="14" viewBox="0 0 14 14" fill="none" xmlns="http://www.w3.org/2000/svg">
<path d="M2.5459 7.16454C2.5459 9.53501 4.48005 11.4633 6.85778 11.4633C9.23603 11.4633 11.1708 9.53501 11.1708 7.16454C11.1708 6.49324 11.0112 5.85996 10.7349 5.29345L9.80836 6.21688C9.90521 6.51578 9.95887 6.83385 9.95887 7.16454C9.95887 8.86876 8.56786 10.2551 6.85795 10.2551C5.14872 10.2551 3.75805 8.86876 3.75805 7.16454C3.75805 5.46014 5.14872 4.07348 6.85795 4.07348C7.18984 4.07348 7.50874 4.12697 7.80874 4.22368L8.73524 3.30008C8.16696 3.0244 7.53152 2.86545 6.85795 2.86545C4.47988 2.86528 2.5459 4.79389 2.5459 7.16454Z" fill="#0B50DA"/>
<path d="M12.1804 5.28978C12.3888 5.87614 12.5032 6.50639 12.5032 7.16305C12.5032 10.2662 9.9704 12.7906 6.85717 12.7906C3.74445 12.7906 1.21215 10.2662 1.21215 7.16305C1.21215 4.05972 3.74445 1.53483 6.85717 1.53483C7.49261 1.53483 8.10324 1.64164 8.67354 1.83541L8.70392 1.80496L9.6078 0.902387C8.76517 0.533182 7.83513 0.32663 6.85717 0.32663C3.07611 0.32663 0 3.3933 0 7.16305C0 10.9325 3.07594 13.999 6.85717 13.999C10.6386 13.999 13.7154 10.9326 13.7154 7.16305C13.7154 6.16477 13.4977 5.21712 13.1105 4.3613L12.1929 5.2775L12.1804 5.28978Z" fill="#0B50DA"/>
<path d="M12.2698 1.7234L11.6541 0L9.27567 2.37519L9.67707 3.49912L7.55834 5.61107C7.34422 5.51519 7.10749 5.46036 6.8576 5.46036C6.74759 5.46036 6.64011 5.47163 6.53567 5.49164C5.74601 5.64202 5.14905 6.33299 5.14905 7.16374C5.14905 8.1045 5.9139 8.8673 6.8576 8.8673C7.6913 8.8673 8.38444 8.27203 8.53511 7.48518C8.55502 7.38106 8.56667 7.27375 8.56667 7.16374C8.56667 6.9148 8.51183 6.67882 8.41548 6.4657L10.555 4.3329L11.621 4.70933L13.9999 2.33415L12.2698 1.7234Z" fill="#0B50DA"/>
</svg>
