<svg width="22" height="22" viewBox="0 0 22 22" fill="none" xmlns="http://www.w3.org/2000/svg">
<path d="M21.5229 9.35331L19.1035 8.63109C18.9362 8.04704 18.7062 7.48282 18.4174 6.94831L19.6018 4.73109C19.6463 4.6474 19.6625 4.55161 19.6482 4.45793C19.6339 4.36426 19.5898 4.27769 19.5224 4.21109L17.7963 2.47776C17.7296 2.41035 17.6431 2.36622 17.5494 2.35191C17.4557 2.33759 17.3599 2.35387 17.2763 2.39831L15.0735 3.57553C14.5337 3.27268 13.9621 3.03046 13.369 2.85331L12.6468 0.462756C12.6163 0.374657 12.5585 0.298522 12.482 0.245311C12.4054 0.1921 12.3139 0.164556 12.2207 0.166645H9.77958C9.6858 0.167082 9.5946 0.197437 9.51926 0.253292C9.44392 0.309148 9.38837 0.387589 9.3607 0.477201L8.63847 2.86053C8.04048 3.03674 7.46397 3.27897 6.91959 3.58276L4.75292 2.41276C4.66923 2.36831 4.57343 2.35204 4.47976 2.36635C4.38609 2.38066 4.29952 2.42479 4.23292 2.4922L2.47792 4.20387C2.41051 4.27047 2.36638 4.35703 2.35207 4.45071C2.33776 4.54438 2.35403 4.64017 2.39847 4.72387L3.56847 6.89053C3.26518 7.43263 3.02296 8.0067 2.84625 8.6022L0.455697 9.32442C0.366086 9.3521 0.287645 9.40765 0.231789 9.48299C0.175933 9.55833 0.145578 9.64953 0.145142 9.74331V12.1844C0.145578 12.2782 0.175933 12.3694 0.231789 12.4447C0.287645 12.5201 0.366086 12.5756 0.455697 12.6033L2.8607 13.3255C3.03934 13.9111 3.28152 14.4754 3.58292 15.0083L2.39847 17.2761C2.35403 17.3598 2.33776 17.4556 2.35207 17.5492C2.36638 17.6429 2.41051 17.7295 2.47792 17.7961L4.20403 19.5222C4.27063 19.5896 4.3572 19.6337 4.45087 19.6481C4.54455 19.6624 4.64034 19.6461 4.72403 19.6016L6.9557 18.41C7.48362 18.6948 8.04049 18.9224 8.61681 19.0889L9.33903 21.5228C9.3667 21.6124 9.42225 21.6908 9.49759 21.7467C9.57293 21.8025 9.66413 21.8329 9.75792 21.8333H12.199C12.2928 21.8329 12.384 21.8025 12.4594 21.7467C12.5347 21.6908 12.5902 21.6124 12.6179 21.5228L13.3401 19.0816C13.9115 18.9143 14.4635 18.6868 14.9868 18.4028L17.2329 19.6016C17.3166 19.6461 17.4124 19.6624 17.5061 19.6481C17.5998 19.6337 17.6863 19.5896 17.7529 19.5222L19.479 17.7961C19.5464 17.7295 19.5906 17.6429 19.6049 17.5492C19.6192 17.4556 19.6029 17.3598 19.5585 17.2761L18.3596 15.0372C18.6466 14.5119 18.8766 13.9575 19.0457 13.3833L21.4796 12.6611C21.5692 12.6334 21.6476 12.5779 21.7035 12.5025C21.7593 12.4272 21.7897 12.336 21.7901 12.2422V9.77942C21.7944 9.68962 21.7711 9.60065 21.7233 9.52449C21.6755 9.44832 21.6056 9.38859 21.5229 9.35331ZM11.0001 14.9722C10.2145 14.9722 9.44652 14.7392 8.79329 14.3028C8.14006 13.8663 7.63093 13.2459 7.33029 12.5201C7.02964 11.7943 6.95098 10.9956 7.10424 10.225C7.25751 9.4545 7.63583 8.74672 8.19136 8.19119C8.74688 7.63567 9.45466 7.25735 10.2252 7.10408C10.9957 6.95081 11.7944 7.02948 12.5202 7.33012C13.2461 7.63077 13.8665 8.1399 14.3029 8.79313C14.7394 9.44636 14.9724 10.2143 14.9724 11C14.9724 12.0535 14.5539 13.0638 13.8089 13.8088C13.064 14.5537 12.0536 14.9722 11.0001 14.9722Z" fill="#5C6370"/>
</svg>
